<svg xmlns="http://www.w3.org/2000/svg" width="804" height="145" viewBox="0 0 671.44 121.38" shape-rendering="geometricPrecision" text-rendering="geometricPrecision" image-rendering="optimizeQuality" fill-rule="evenodd" clip-rule="evenodd"><defs><style>.fil0{fill:#000}</style></defs><g id="Layer_x0020_1"><g id="_1639632979712"><path class="fil0" d="M115.61 0H84.04c-4.34 0-7.89 3.55-7.89 7.89v6.91h39.46V0zM406.19 50.92h-33.54v-8.5h-14.8v39.5h-39.46v-46.4c0-4.35 3.55-7.9 7.89-7.9h79.91v23.3zM76.15 47.35H38.66V33.54c0-3.25 2.66-5.92 5.92-5.92h71.03v82.91c0 5.9-4.82 10.85-10.86 10.85H0v-9.87c0-10.85 8.88-19.73 19.73-19.73h56.42V47.35zM129.93 27.62h53.27c16.28 0 29.6 13.32 29.6 29.6v19.76c0 2.71-2.23 4.94-4.94 4.94h-53.27c-16.27 0-29.6-13.32-29.6-29.6V32.56a4.95 4.95 0 014.94-4.94zm46.36 39.5v-24.7H161.5v24.7h14.79zM227.12 27.62h34.52v39.5h14.8v-39.5H309v54.3h-67.09c-10.85 0-19.73-8.88-19.73-19.73V32.56a4.95 4.95 0 014.94-4.94zM617.18 81.92h-55.57V32.56a4.95 4.95 0 014.94-4.94h104.89v93.76H541.88v-9.87c0-10.85 8.88-19.73 19.73-19.73h70.37V47.35h-30.9v14.84h16.1v19.73z"/><path class="fil0" d="M415.57 14.8h-29.59V0h69.06v81.92h-39.47V14.8zM469.36 27.62h53.27c16.28 0 29.6 13.32 29.6 29.6v19.76c0 2.71-2.23 4.94-4.94 4.94h-53.27c-16.28 0-29.6-13.32-29.6-29.6V32.56a4.95 4.95 0 014.94-4.94zm46.36 39.5v-24.7h-14.79v24.7h14.79z"/></g></g></svg>